<?xml version="1.0" encoding="utf-8"?>
<svg width="24px" height="24px" viewBox="0 0 24 24" version="1.1" xmlns:xlink="http://www.w3.org/1999/xlink" xmlns="http://www.w3.org/2000/svg">
  <desc>Created with Lunacy</desc>
  <g id="24-/-basic-/-camera-create">
    <path d="M6.18689 2.46372C6.08656 2.62631 6.00787 2.74688 5.93702 2.84538C5.8903 2.91033 5.84949 2.96194 5.8162 3L3 3C1.34315 3 0 4.34315 0 6L0 15C0 16.6569 1.34315 18 3 18L19 18C20.6569 18 22 16.6569 22 15L22 9L20 9L20 15C20 15.5523 19.5523 16 19 16L3 16C2.44772 16 2 15.5523 2 15L2 6C2 5.44772 2.44772 5 3 5L6 5C6.66434 5 7.11237 4.63641 7.56061 4.01326C7.66375 3.86988 7.76592 3.71332 7.88887 3.51409C7.95096 3.41348 8.15916 3.06908 8.1882 3.02159C8.6405 2.28172 8.91327 2 9 2L14 2L14 0L9 0C7.91339 0 7.31079 0.622387 6.4818 1.97841C6.44827 2.03326 6.24312 2.37261 6.18689 2.46372ZM20 1L18 1L18 3L16 3L16 5L18 5L18 7L20 7L20 5L22 5L22 3L20 3L20 1ZM11 15C8.23858 15 6 12.7614 6 10C6 7.23858 8.23858 5 11 5C13.7614 5 16 7.23858 16 10C16 12.7614 13.7614 15 11 15ZM14 10C14 11.6569 12.6569 13 11 13C9.34315 13 8 11.6569 8 10C8 8.34315 9.34315 7 11 7C12.6569 7 14 8.34315 14 10Z" transform="translate(1 3)" id="icon" fill="#2E3540" fill-rule="evenodd" stroke="none" />
  </g>
</svg>