<?xml version="1.0" encoding="utf-8"?>
<svg width="24px" height="24px" viewBox="0 0 24 24" version="1.1" xmlns:xlink="http://www.w3.org/1999/xlink" xmlns="http://www.w3.org/2000/svg">
  <desc>Created with Lunacy</desc>
  <g id="24-/-basic-/-eye">
    <path d="M1.89414 0L0.479928 1.41421L4.54475 5.47903C4.16609 5.79285 3.79135 6.12986 3.42074 6.48826C2.59153 7.29015 1.84134 8.14626 1.18094 9.00273C0.782441 9.51955 0.499509 9.9261 0.3446 10.1683L0 10.7071L0.3446 11.2459C0.499509 11.4881 0.782441 11.8947 1.18094 12.4115C1.84134 13.268 2.59153 14.1241 3.42074 14.926C5.85136 17.2765 8.45949 18.7071 11.187 18.7071C12.908 18.7071 14.5813 18.1376 16.1926 17.1269L20.4799 21.4142L21.8941 20L1.89414 0ZM14.7317 15.6659L13.219 14.1533C12.6235 14.5052 11.9288 14.7071 11.187 14.7071C8.9779 14.7071 7.18703 12.9162 7.18703 10.7071C7.18703 9.9653 7.38896 9.27065 7.74085 8.67514L5.96676 6.90104C5.57936 7.21345 5.19381 7.55583 4.81107 7.92596C4.05687 8.65531 3.36942 9.43983 2.76478 10.224C2.63419 10.3933 2.51352 10.5549 2.4032 10.7071C2.51352 10.8593 2.63419 11.0209 2.76478 11.1902C3.36942 11.9744 4.05687 12.7589 4.81107 13.4883C6.90453 15.5127 9.08196 16.7071 11.187 16.7071C12.3552 16.7071 13.5457 16.3393 14.7317 15.6659ZM9.25478 10.1891C9.21059 10.3543 9.18703 10.5279 9.18703 10.7071C9.18703 11.8117 10.0825 12.7071 11.187 12.7071C11.3662 12.7071 11.5399 12.6835 11.7051 12.6394L9.25478 10.1891ZM19.2851 14.5981L17.8709 13.1838C18.505 12.5428 19.0879 11.8664 19.6093 11.1902C19.7399 11.0209 19.8605 10.8593 19.9709 10.7071C19.8605 10.5549 19.7399 10.3933 19.6093 10.224C19.0046 9.43983 18.3172 8.65531 17.563 7.92596C15.4695 5.90148 13.2921 4.70711 11.187 4.70711C10.6647 4.70711 10.138 4.78063 9.60916 4.92212L8.02718 3.34015C9.05963 2.92848 10.1141 2.70711 11.187 2.70711C13.9146 2.70711 16.5227 4.13773 18.9533 6.48826C19.7825 7.29015 20.5327 8.14626 21.1931 9.00273C21.5916 9.51955 21.8746 9.9261 22.0295 10.1683L22.3741 10.7071L22.0295 11.2459C21.8746 11.4881 21.5916 11.8947 21.1931 12.4115C20.622 13.1522 19.9836 13.8927 19.2851 14.5981Z" transform="translate(0.8129652 1.292893)" id="icon" fill="#000000" fill-rule="evenodd" stroke="none" />
  </g>
</svg>