<?xml version="1.0" encoding="utf-8"?>
<svg width="24px" height="24px" viewBox="0 0 24 24" version="1.1" xmlns:xlink="http://www.w3.org/1999/xlink" xmlns="http://www.w3.org/2000/svg">
  <desc>Created with Lunacy</desc>
  <g id="24-/-basic-/-eye-copy">
    <path d="M11.187 0C13.9146 0 16.5227 1.43062 18.9533 3.78115C19.7825 4.58305 20.5327 5.43916 21.1931 6.29562C21.5916 6.81244 21.8746 7.21899 22.0295 7.4612L22.3741 8L22.0295 8.5388C21.8746 8.78101 21.5916 9.18756 21.1931 9.70438C20.5327 10.5608 19.7825 11.417 18.9533 12.2189C16.5227 14.5694 13.9146 16 11.187 16C8.45949 16 5.85136 14.5694 3.42074 12.2189C2.59153 11.417 1.84134 10.5608 1.18094 9.70438C0.782441 9.18756 0.499509 8.78101 0.3446 8.5388L0 8L0.3446 7.4612C0.499509 7.21899 0.782441 6.81244 1.18094 6.29562C1.84134 5.43916 2.59153 4.58305 3.42074 3.78115C5.85136 1.43062 8.45949 0 11.187 0ZM17.563 5.21885C18.3172 5.9482 19.0046 6.73272 19.6093 7.51688C19.7399 7.68624 19.8605 7.84782 19.9709 8C19.8605 8.15218 19.7399 8.31376 19.6093 8.48312C19.0046 9.26728 18.3172 10.0518 17.563 10.7811C15.4695 12.8056 13.2921 14 11.187 14C9.08196 14 6.90453 12.8056 4.81108 10.7811C4.05687 10.0518 3.36942 9.26728 2.76478 8.48312C2.63419 8.31376 2.51352 8.15218 2.4032 8C2.51352 7.84782 2.63419 7.68624 2.76478 7.51688C3.36942 6.73272 4.05687 5.9482 4.81108 5.21885C6.90453 3.19438 9.08196 2 11.187 2C13.2921 2 15.4695 3.19438 17.563 5.21885ZM11.187 12C8.9779 12 7.18703 10.2091 7.18703 8C7.18703 5.79086 8.9779 4 11.187 4C13.3962 4 15.187 5.79086 15.187 8C15.187 10.2091 13.3962 12 11.187 12ZM13.187 8C13.187 9.10457 12.2916 10 11.187 10C10.0825 10 9.18703 9.10457 9.18703 8C9.18703 6.89543 10.0825 6 11.187 6C12.2916 6 13.187 6.89543 13.187 8Z" transform="translate(0.8129652 4)" id="icon" fill="#000000" fill-rule="evenodd" stroke="none" />
  </g>
</svg>