<?xml version="1.0" encoding="utf-8"?>
<svg width="100px" height="50px" viewBox="0 0 100 50" version="1.1" xmlns:xlink="http://www.w3.org/1999/xlink" xmlns="http://www.w3.org/2000/svg">
  <desc>Created with Lunacy</desc>
  <defs>
    <path d="M0 0L13.7523 0L13.7523 13.674L0 13.674L0 0Z" transform="translate(0.07496198 0.02793269)" id="path_1" />
    <path d="M0 0L27.4307 0L27.4307 17.9046L0 17.9046L0 0Z" transform="translate(0.2281508 0.189399)" id="path_2" />
    <path d="M0 0L29.8639 0L29.8639 17.9046L0 17.9046L0 0Z" transform="translate(0 0.1893269)" id="path_3" />
    <clipPath id="mask_1">
      <use xlink:href="#path_1" />
    </clipPath>
    <clipPath id="mask_2">
      <use xlink:href="#path_2" />
    </clipPath>
    <clipPath id="mask_3">
      <use xlink:href="#path_3" />
    </clipPath>
  </defs>
  <g id="Group-2">
    <g id="Group">
      <path d="M11.3596 1.14687C11.2842 0.501202 10.7888 0.0420673 10.1258 0.00240385C10.1161 0.00240385 10.0455 0 10.0321 0C9.25328 0 8.8382 0.573317 8.66302 0.819231C6.82287 3.37885 4.9781 5.93918 3.13577 8.4988L2.40681 9.50937L2.40681 0.789183C2.40681 0.446635 2.12579 0.168269 1.77908 0.168269L0.637713 0.168269C0.306326 0.168269 0.0326034 0.421875 0.0119221 0.749519L0.00462287 0.814423C0.00218978 0.874038 0 0.923317 0 0.973077L0 12.494C0 12.6478 0.0170316 12.8072 0.0569343 12.9983C0.188564 13.6236 0.655718 14.0017 1.30438 14.0058L1.31898 14.0058C2.13917 14.0058 2.55766 13.4226 2.69659 13.2293C4.54136 10.6594 6.38491 8.09423 8.23455 5.52428L8.96229 4.51394L8.96229 13.2315C8.96229 13.5719 9.24355 13.8502 9.59027 13.8502L10.7462 13.8502C11.0932 13.8502 11.3745 13.5719 11.3745 13.2315L11.3718 1.51178C11.3718 1.39038 11.3718 1.26827 11.3596 1.14687" transform="translate(63.43119 7.211538E-05)" id="Fill-1" fill="#9FC854" stroke="none" />
      <path d="M10.9723 0.933654C10.9723 0.849279 10.9693 0.767067 10.962 0.685337L10.9572 0.595673C10.9423 0.265865 10.6657 0.00480769 10.3316 0.00480769L9.14744 0.00480769C8.80073 0.00480769 8.52214 0.283173 8.52214 0.62524L8.52214 6.99423C8.26034 6.99663 7.99951 6.99904 7.73723 7.00457C7.28078 7.00938 6.82579 7.01466 6.37056 7.01466C5.66959 7.01466 5.09659 7.00216 4.5635 6.9726C3.57591 6.9125 3.06545 6.2399 2.81411 5.6887C2.48978 4.97813 2.44477 4.1863 2.44234 3.50577L2.43747 2.23438C2.43747 2.16779 2.4399 2.00361 2.4399 1.00337L2.4399 0.620913C2.4399 0.275962 2.15888 0 1.81217 0L0.627251 0C0.281265 0 0 0.275962 0 0.620913L0 2.28918L0.00194647 3.72163C0.00437956 4.15385 0.0243309 4.60048 0.0620438 5.04784C0.278589 7.52091 2.17348 9.28654 4.67178 9.33822C5.34039 9.35072 6.00852 9.35312 6.67713 9.35312L8.4618 9.35072C8.29586 10.3144 7.47616 11.1757 6.50925 11.3002C6.25255 11.3322 4.52336 11.3471 3.38248 11.3599C2.35231 11.37 1.71338 11.3772 1.51265 11.3875C1.18029 11.4091 0.924331 11.6803 0.924331 12.0077L0.924331 13.0478C0.924331 13.3909 1.20365 13.6692 1.5528 13.6692L4.68637 13.6716C5.3983 13.6716 5.97883 13.6692 6.09197 13.6692C7.32579 13.6416 8.32847 13.3115 9.15255 12.6582C10.3589 11.7048 10.9693 10.3462 10.9723 8.62332C10.974 5.71082 10.974 5.07548 10.974 3.38149L10.9723 0.933654Z" transform="translate(38.97024 0.15625)" id="Fill-3" fill="#9FC854" stroke="none" />
      <path d="M5.83601 0.0100962C5.15693 0.00240385 4.47932 0 3.80268 0L1.61825 0.00240385C0.575426 0.00240385 0 0.578846 0 1.62356L0 13.0952C0 13.4356 0.281752 13.7132 0.628954 13.7132L1.84477 13.7132C2.18905 13.7132 2.47007 13.4356 2.47007 13.0952L2.47007 2.34375C2.68419 2.34135 2.89732 2.34135 3.11144 2.33894C4.10681 2.33101 5.08905 2.3238 6.07226 2.35889C6.5747 2.3762 7.07251 2.58966 7.54696 2.99904C8.21752 3.57308 8.5326 4.33293 8.53528 5.38077C8.5399 7.12332 8.53771 8.86923 8.53771 10.612L8.53771 13.0952C8.53771 13.4377 8.8163 13.7163 9.16569 13.7163L10.3496 13.7163C10.6538 13.7163 10.9251 13.4377 10.9774 13.1421C10.9898 13.07 10.9968 13.0103 10.9968 12.9486C10.9968 12.1418 10.9968 11.3327 11.0029 10.5252C11.0054 8.69543 11.0105 6.8012 10.9652 4.93582C10.8946 2.11298 8.73601 0.0396635 5.83601 0.0100962" transform="translate(51.26949 0.1389183)" id="Fill-5" fill="#9FC854" stroke="none" />
      <path d="M6.42165 6.83798L10.6414 0.98774C10.774 0.799519 10.7946 0.550721 10.6861 0.344952C10.5781 0.136538 10.362 0.00721154 10.129 0.00721154L9.45718 0.0125C9.32141 0.0125 9.19075 0.00961538 9.06058 0.00240385C9.04842 0.00240385 8.99489 0 8.98248 0C8.60779 0 8.29878 0.165865 8.06253 0.491827C7.71095 0.980529 7.35328 1.4649 6.99951 1.94639C6.23796 2.98221 5.45109 4.05457 4.71265 5.13966C4.2927 5.75288 4.05426 5.77812 3.66229 5.71803C3.35012 5.67356 2.9601 5.67356 2.5635 5.68846C2.52092 5.69111 2.47591 5.69111 2.4309 5.69279L2.4309 0.652885C2.4309 0.307692 2.14891 0.0319712 1.8017 0.0319712L0.628467 0.0319712C0.281752 0.0319712 0 0.307692 0 0.652885L0 13.0976C0 13.4404 0.281752 13.718 0.628467 13.718L1.81509 13.718C2.1618 13.718 2.44282 13.4404 2.44282 13.0976L2.44282 8.03486L3.18954 8.03486C3.54671 8.03486 3.90097 8.03245 4.26764 8.02764C5.50414 9.76779 6.75328 11.4986 8.00414 13.2293C8.08516 13.3459 8.33893 13.6957 8.75377 13.7236C8.96667 13.7361 9.18102 13.7385 9.40487 13.7385L10.1509 13.7361C10.3869 13.7361 10.6034 13.6038 10.7107 13.3981C10.8163 13.1916 10.7995 12.9435 10.6633 12.7548L6.42165 6.83798Z" transform="translate(27.41148 0.1340625)" id="Fill-7" fill="#9FC854" stroke="none" />
      <path d="M10.9168 0.859375C10.6307 0.313221 10.1732 0 9.65961 0C9.21801 0 8.79562 0.233654 8.47932 0.648317C8.43188 0.705529 8.3893 0.764904 8.34064 0.826923L2.31217 9.19255L2.31217 0.772356C2.31217 0.439183 2.04088 0.16875 1.70365 0.16875L0.613139 0.16875C0.273723 0.16875 0 0.439183 0 0.772356L0 11.9885C0 12.1099 0.00462287 12.2288 0.0206813 12.3531C0.113139 13.0661 0.615572 13.5452 1.26667 13.5452C1.52579 13.5452 1.79367 13.4651 2.0455 13.3144C2.23893 13.1978 2.41655 13.026 2.58346 12.7928C4.49027 10.1483 6.39854 7.50144 8.30292 4.85409L8.63042 4.40505L8.63042 12.7928C8.63042 13.1281 8.90171 13.3954 9.23747 13.3954L10.3764 13.3954C10.7136 13.3954 10.9874 13.1281 10.9874 12.7928L10.9874 1.13486C10.9874 1.04038 10.9618 0.94375 10.9168 0.859375" transform="translate(64.16246 36.26875)" id="Fill-9" fill="#596366" stroke="none" />
      <path d="M6.24331 6.59736L10.3095 0.955769C10.4399 0.772596 10.4582 0.529087 10.3521 0.330529C10.2494 0.131731 10.0382 0.00456731 9.81192 0.00456731L9.12312 0.00769231C8.99538 0.00769231 8.87494 0.00769231 8.70317 0C8.34428 0 8.0528 0.153846 7.83917 0.452163C6.82385 1.86226 5.79854 3.26538 4.77275 4.66779L4.66983 4.80962C4.59513 4.9113 4.52433 5.02308 4.45377 5.13966C4.37591 5.26659 4.24574 5.47764 4.17762 5.51466C4.17762 5.51466 4.1399 5.53221 4.0146 5.53221C3.91606 5.53221 3.81557 5.525 3.71265 5.51466C3.57883 5.50457 3.4438 5.49495 3.30754 5.49495L2.38029 5.49495L2.38029 0.608413C2.38029 0.275721 2.10657 0.00456731 1.76934 0.00456731L0.611436 0.00456731C0.27202 0.00456731 0 0.275721 0 0.608413L0 12.6486C0 12.9839 0.27202 13.2514 0.611436 13.2514L1.79732 13.2514C2.13212 13.2514 2.40584 12.9839 2.40584 12.6486L2.40584 7.74663L3.09708 7.74928C3.44866 7.74928 3.79805 7.74663 4.1399 7.71971C4.1399 7.71971 4.15207 7.73245 4.18005 7.76659C5.32871 9.38846 6.49222 11.0026 7.65061 12.6135L7.76618 12.7752C7.87689 12.9317 8.08029 13.2221 8.44964 13.237C8.68638 13.249 8.92239 13.2514 9.16618 13.2514L9.83431 13.2514C10.0637 13.2514 10.2718 13.1252 10.3752 12.9243C10.4805 12.7224 10.4628 12.482 10.3326 12.2988L6.24331 6.59736Z" transform="translate(27.63487 36.41291)" id="Fill-11" fill="#596366" stroke="none" />
      <g id="Group-15" transform="translate(37.22628 36.17644)">
        <path d="M0 0L13.7523 0L13.7523 13.674L0 13.674L0 0Z" transform="translate(0.07496198 0.02793269)" id="Clip-14" fill="none" stroke="none" />
        <g clip-path="url(#mask_1)">
          <path d="M2.58491e-05 6.80361C0.00975821 2.98702 3.02606 0 6.87132 0C8.7611 0.00456731 10.4976 0.722596 11.7888 2.01611C13.0764 3.30745 13.7723 5.02356 13.7519 6.85288C13.7066 10.6774 10.701 13.674 6.91146 13.674L6.87618 13.674C3.01073 13.6541 -0.0101931 10.637 2.58491e-05 6.80361ZM6.86037 11.4245C7.43117 11.4245 7.99443 11.3151 8.53239 11.0937C10.3212 10.3615 11.229 8.99856 11.3847 6.80577C11.375 6.71154 11.3618 6.60745 11.3494 6.50313C11.319 6.23245 11.2837 5.92452 11.2171 5.64375C10.7156 3.6476 8.93652 2.25481 6.89078 2.25481C6.17472 2.25481 5.47618 2.42308 4.81779 2.75601C3.00757 3.66755 2.07861 5.71611 2.50562 7.8488C2.91754 9.92212 4.74966 11.4245 6.86037 11.4245Z" transform="translate(0.07496198 0.02793269)" id="Fill-13" fill="#596366" fill-rule="evenodd" stroke="none" />
        </g>
      </g>
      <path d="M9.95183 2.48269C9.01971 0.885817 7.518 0.0545673 5.48102 0.0120192C4.95888 0.00240385 4.43942 0 3.91849 0L1.57835 0.00697115C0.560827 0.00697115 0 0.558894 0 1.55913L0 12.6382C0 12.9738 0.273966 13.2418 0.610706 13.2418L1.76934 13.2418C2.109 13.2418 2.38029 12.9738 2.38029 12.6382L2.38029 2.24711L3.93796 2.24207C4.49903 2.24207 5.05377 2.24471 5.61241 2.25889C6.11728 2.26923 6.60779 2.43101 7.02993 2.7262C7.79903 3.25505 8.191 3.9976 8.20316 4.92885C8.21776 6.67139 8.21533 8.41466 8.21314 10.1582L8.21046 12.6286C8.21046 12.9611 8.48175 13.2317 8.82141 13.2317L9.97251 13.2317C10.2742 13.2317 10.5384 12.9714 10.5835 12.6779C10.5932 12.6089 10.5981 12.5589 10.5981 12.5123L10.6005 10.5079C10.6005 8.58125 10.6005 6.65409 10.5856 4.7274C10.581 3.94832 10.3669 3.19062 9.95183 2.48269" transform="translate(52.04078 36.4105)" id="Fill-16" fill="#596366" stroke="none" />
      <path d="M13.5844 0L12.0085 0C11.5511 0 11.1798 0.365385 11.1798 0.819712L11.1798 7.42644L3.23236 7.42644L3.23236 0.826923C3.23236 0.37524 2.8635 0.0108173 2.40584 0.0108173L0.83017 0.0108173C0.370073 0.0108173 0 0.37524 0 0.826923L0 17.1226C0 17.5748 0.370073 17.9404 0.83017 17.9404L2.42044 17.9404C2.8781 17.9404 3.24793 17.5748 3.24793 17.1226L3.24793 10.5007L11.1968 10.5007L11.1968 17.1034C11.1968 17.5555 11.5691 17.92 12.0268 17.92L13.5844 17.92C14.0418 17.92 14.4107 17.5555 14.4107 17.1034L14.4107 0.819712C14.4107 0.365385 14.0418 0 13.5844 0" transform="translate(34.71954 16.15572)" id="Fill-18" fill="#596366" stroke="none" />
      <path d="M7.00366 0.251441C9.51655 -0.306973 11.8214 0.0675466 13.8015 1.34687C15.3713 2.36202 16.4737 3.87884 17.0796 5.84808C17.3681 6.78942 17.5141 7.78269 17.5214 8.8875C17.5336 9.86562 16.8353 10.6087 15.8251 10.6897C15.7214 10.6952 15.6411 10.6952 15.5635 10.6952L3.35402 10.6952C3.41753 11.0077 3.50998 11.3012 3.63042 11.5834C4.44332 13.4639 5.87081 14.6132 7.9966 15.0974C8.63188 15.2413 9.32337 15.2687 9.85621 15.2764C10.5377 15.2913 11.2156 15.2933 11.892 15.2933L14.7251 15.2885C15.1813 15.2885 15.5511 15.6565 15.5511 16.1084L15.5511 17.4339C15.5511 17.8709 15.2022 18.2334 14.7589 18.2534L14.674 18.2555C14.5983 18.2637 14.5253 18.2659 14.4526 18.2659L11.6156 18.2683C10.9294 18.2683 10.2457 18.2683 9.56035 18.2637C7.28492 18.2534 5.27933 17.6173 3.60122 16.374C1.68079 14.9536 0.51485 13.0714 0.138207 10.7817C-0.224323 8.59471 0.127988 6.51827 1.17592 4.61394C2.45986 2.2899 4.4202 0.822595 7.00366 0.251441ZM3.39441 7.52933C3.37008 7.62404 3.35402 7.71995 3.33723 7.81731L14.2516 7.81731C14.2467 7.78005 14.2419 7.74543 14.237 7.70793C14.0861 6.59375 13.7282 5.66394 13.1492 4.87788C12.3664 3.81514 11.319 3.20913 9.94989 3.02524C8.55889 2.83149 7.28492 3.06731 6.14697 3.71274C4.71972 4.525 3.8168 5.7738 3.39441 7.52933Z" transform="translate(50.85023 15.99188)" id="Fill-20" fill="#596366" fill-rule="evenodd" stroke="none" />
      <g id="Group-24" transform="translate(72.26277 15.98413)">
        <path d="M0 0L27.4307 0L27.4307 17.9046L0 17.9046L0 0Z" transform="translate(0.2281508 0.189399)" id="Clip-23" fill="none" stroke="none" />
        <g clip-path="url(#mask_2)">
          <path d="M26.8078 7.72356L2.3618 7.72356L2.3618 0.613221C2.3618 0.273077 2.07713 0 1.72555 0L0.636496 0C0.283455 0 0 0.273077 0 0.613221L0 17.2889C0 17.6291 0.283455 17.9046 0.636496 17.9046L1.72555 17.9046C2.07713 17.9046 2.3618 17.6291 2.3618 17.2889L2.3618 10.181L26.8078 10.181C27.1521 10.181 27.4309 9.88389 27.4309 9.51875L27.4309 8.38486C27.4309 8.02043 27.1521 7.72356 26.8078 7.72356" transform="translate(0.2281508 0.189399)" id="Fill-22" fill="#596366" stroke="none" />
        </g>
      </g>
      <g id="Group-27" transform="translate(0 15.98413)">
        <path d="M0 0L29.8639 0L29.8639 17.9046L0 17.9046L0 0Z" transform="translate(0 0.1893269)" id="Clip-26" fill="none" stroke="none" />
        <g clip-path="url(#mask_3)">
          <path d="M0.623114 10.181L27.5019 10.181L27.5019 17.2913C27.5019 17.6317 27.7869 17.9046 28.1384 17.9046L29.2275 17.9046C29.5805 17.9046 29.864 17.6317 29.864 17.2913L29.864 0.615865C29.864 0.275481 29.5805 0 29.2275 0L28.1384 0C27.7869 0 27.5019 0.275481 27.5019 0.615865L27.5019 7.72356L0.623114 7.72356C0.278589 7.72356 0 8.02067 0 8.38606L0 9.51995C0 9.88413 0.278589 10.181 0.623114 10.181" transform="translate(-9.73236E-05 0.1893269)" id="Fill-25" fill="#596366" stroke="none" />
        </g>
      </g>
    </g>
  </g>
</svg>